<?xml version="1.0" encoding="UTF-8" standalone="no"?>
<!-- Created with Inkscape (http://www.inkscape.org/) -->

<svg
   version="1.1"
   id="svg579"
   width="218.81071"
   height="278.50418"
   viewBox="0 0 218.81072 278.50418"
   sodipodi:docname="zhuia-logo.png"
   inkscape:version="1.2.2 (b0a8486541, 2022-12-01)"
   xmlns:inkscape="http://www.inkscape.org/namespaces/inkscape"
   xmlns:sodipodi="http://sodipodi.sourceforge.net/DTD/sodipodi-0.dtd"
   xmlns="http://www.w3.org/2000/svg"
   xmlns:svg="http://www.w3.org/2000/svg">
  <defs
     id="defs583" />
  <sodipodi:namedview
     id="namedview581"
     pagecolor="#ffffff"
     bordercolor="#000000"
     borderopacity="0.25"
     inkscape:showpageshadow="2"
     inkscape:pageopacity="0.0"
     inkscape:pagecheckerboard="0"
     inkscape:deskcolor="#d1d1d1"
     showgrid="false"
     inkscape:zoom="2.4157163"
     inkscape:cx="154.19857"
     inkscape:cy="146.74737"
     inkscape:window-width="2160"
     inkscape:window-height="1408"
     inkscape:window-x="0"
     inkscape:window-y="0"
     inkscape:window-maximized="1"
     inkscape:current-layer="g585" />
  <g
     inkscape:groupmode="layer"
     inkscape:label="Image"
     id="g585"
     transform="translate(-65.97438,-25.701931)">
    <path
       style="fill:#000000;stroke-width:1.33333"
       d="M 140.14487,304.20611 C 107.40626,296.62327 82.769672,268.72907 73.056832,237.38464 61.375182,202.24082 64.373692,162.93495 80.355336,129.60885 95.81678,95.03848 121.00652,61.111269 158.54552,49.345678 c 47.82539,-14.066288 100.80499,16.78121 118.90895,61.828892 15.79487,37.9148 5.40173,84.57558 -24.78594,112.42149 -11.49742,12.02652 -23.59879,25.54398 -40.79877,28.84493 -24.1223,4.90303 -48.53087,-2.76546 -72.61962,-2.98857 -12.1311,6.35969 -7.87562,22.85556 -5.69415,33.7796 1.72532,7.12854 4.03184,14.10444 6.58888,20.97409 z m 70.00841,-69.26904 c 51.75257,-14.76011 79.5325,-82.78181 50.98319,-128.95996 -11.66385,-21.506441 -36.10129,-36.519351 -60.91873,-33.059694 -26.96267,0.0066 -53.44692,9.866536 -74.16655,27.041351 -13.53434,9.037883 -30.627472,19.095803 -31.763291,37.261903 -6.57153,50.78995 37.091621,102.5864 88.948021,101.7644 9.11101,0.0974 18.24392,-1.2468 26.91736,-4.048 z m -39.89816,-51.46886 c -29.16887,-8.72903 -31.52888,-56.78262 -3.08587,-68.00624 21.02722,-11.23396 51.2652,5.18622 50.6393,29.77184 1.47061,23.80857 -23.40589,48.99632 -47.55343,38.2344 z M 127.9851,134.00838 c 3.80334,-25.0502 28.79129,-47.87726 54.91349,-42.990437 -21.72448,2.766621 -31.53321,24.807147 -45.91426,38.348877 -2.42809,0.99592 -11.77622,13.89027 -8.99923,4.64156 z M 72.691461,76.196016 C 79.354668,58.22393 85.582548,36.018701 105.08511,28.11398 c 9.26555,-2.506272 26.78855,-5.053317 31.83145,3.437176 -11.11272,6.452038 -25.49633,6.485128 -35.63229,15.556932 -11.743049,7.457167 -19.021872,19.531638 -28.592809,29.087928 z"
       id="path681"
       sodipodi:nodetypes="ccccccccccccccccccccccccccc"
       inkscape:export-filename="zhuia-logo-beak.png"
       inkscape:export-xdpi="96"
       inkscape:export-ydpi="96" />
  </g>
</svg>
